<?xml version="1.0" encoding="utf-8" standalone="no"?>
<!DOCTYPE svg PUBLIC "-//W3C//DTD SVG 1.1//EN"
  "http://www.w3.org/Graphics/SVG/1.1/DTD/svg11.dtd">
<svg xmlns:xlink="http://www.w3.org/1999/xlink" width="1008pt" height="504pt" viewBox="0 0 1008 504" xmlns="http://www.w3.org/2000/svg" version="1.1">
 <metadata>
  <rdf:RDF xmlns:dc="http://purl.org/dc/elements/1.1/" xmlns:cc="http://creativecommons.org/ns#" xmlns:rdf="http://www.w3.org/1999/02/22-rdf-syntax-ns#">
   <cc:Work>
    <dc:type rdf:resource="http://purl.org/dc/dcmitype/StillImage"/>
    <dc:date>2024-12-16T17:43:24.518729</dc:date>
    <dc:format>image/svg+xml</dc:format>
    <dc:creator>
     <cc:Agent>
      <dc:title>Matplotlib v3.8.4, https://matplotlib.org/</dc:title>
     </cc:Agent>
    </dc:creator>
   </cc:Work>
  </rdf:RDF>
 </metadata>
 <defs>
  <style type="text/css">*{stroke-linejoin: round; stroke-linecap: butt}</style>
 </defs>
 <g id="figure_1">
  <g id="patch_1">
   <path d="M 0 504 
L 1008 504 
L 1008 0 
L 0 0 
z
" style="fill: #ffffff"/>
  </g>
  <g id="axes_1">
   <g id="patch_2">
    <path d="M 126 448.56 
L 907.2 448.56 
L 907.2 60.48 
L 126 60.48 
z
" style="fill: #ffffff"/>
   </g>
   <g id="matplotlib.axis_1">
    <g id="xtick_1">
     <g id="line2d_1">
      <defs>
       <path id="me6eb91f1d9" d="M 0 0 
L 0 3.5 
" style="stroke: #000000; stroke-width: 0.8"/>
      </defs>
      <g>
       <use xlink:href="#me6eb91f1d9" x="161.509091" y="448.56" style="stroke: #000000; stroke-width: 0.8"/>
      </g>
     </g>
     <g id="text_1">
      <!-- 0 -->
      <g transform="translate(158.327841 463.158437) scale(0.1 -0.1)">
       <defs>
        <path id="DejaVuSans-30" d="M 2034 4250 
Q 1547 4250 1301 3770 
Q 1056 3291 1056 2328 
Q 1056 1369 1301 889 
Q 1547 409 2034 409 
Q 2525 409 2770 889 
Q 3016 1369 3016 2328 
Q 3016 3291 2770 3770 
Q 2525 4250 2034 4250 
z
M 2034 4750 
Q 2819 4750 3233 4129 
Q 3647 3509 3647 2328 
Q 3647 1150 3233 529 
Q 2819 -91 2034 -91 
Q 1250 -91 836 529 
Q 422 1150 422 2328 
Q 422 3509 836 4129 
Q 1250 4750 2034 4750 
z
" transform="scale(0.015625)"/>
       </defs>
       <use xlink:href="#DejaVuSans-30"/>
      </g>
     </g>
    </g>
    <g id="xtick_2">
     <g id="line2d_2">
      <g>
       <use xlink:href="#me6eb91f1d9" x="303.830097" y="448.56" style="stroke: #000000; stroke-width: 0.8"/>
      </g>
     </g>
     <g id="text_2">
      <!-- 100 -->
      <g transform="translate(294.286347 463.158437) scale(0.1 -0.1)">
       <defs>
        <path id="DejaVuSans-31" d="M 794 531 
L 1825 531 
L 1825 4091 
L 703 3866 
L 703 4441 
L 1819 4666 
L 2450 4666 
L 2450 531 
L 3481 531 
L 3481 0 
L 794 0 
L 794 531 
z
" transform="scale(0.015625)"/>
       </defs>
       <use xlink:href="#DejaVuSans-31"/>
       <use xlink:href="#DejaVuSans-30" x="63.623047"/>
       <use xlink:href="#DejaVuSans-30" x="127.246094"/>
      </g>
     </g>
    </g>
    <g id="xtick_3">
     <g id="line2d_3">
      <g>
       <use xlink:href="#me6eb91f1d9" x="446.151102" y="448.56" style="stroke: #000000; stroke-width: 0.8"/>
      </g>
     </g>
     <g id="text_3">
      <!-- 200 -->
      <g transform="translate(436.607352 463.158437) scale(0.1 -0.1)">
       <defs>
        <path id="DejaVuSans-32" d="M 1228 531 
L 3431 531 
L 3431 0 
L 469 0 
L 469 531 
Q 828 903 1448 1529 
Q 2069 2156 2228 2338 
Q 2531 2678 2651 2914 
Q 2772 3150 2772 3378 
Q 2772 3750 2511 3984 
Q 2250 4219 1831 4219 
Q 1534 4219 1204 4116 
Q 875 4013 500 3803 
L 500 4441 
Q 881 4594 1212 4672 
Q 1544 4750 1819 4750 
Q 2544 4750 2975 4387 
Q 3406 4025 3406 3419 
Q 3406 3131 3298 2873 
Q 3191 2616 2906 2266 
Q 2828 2175 2409 1742 
Q 1991 1309 1228 531 
z
" transform="scale(0.015625)"/>
       </defs>
       <use xlink:href="#DejaVuSans-32"/>
       <use xlink:href="#DejaVuSans-30" x="63.623047"/>
       <use xlink:href="#DejaVuSans-30" x="127.246094"/>
      </g>
     </g>
    </g>
    <g id="xtick_4">
     <g id="line2d_4">
      <g>
       <use xlink:href="#me6eb91f1d9" x="588.472108" y="448.56" style="stroke: #000000; stroke-width: 0.8"/>
      </g>
     </g>
     <g id="text_4">
      <!-- 300 -->
      <g transform="translate(578.928358 463.158437) scale(0.1 -0.1)">
       <defs>
        <path id="DejaVuSans-33" d="M 2597 2516 
Q 3050 2419 3304 2112 
Q 3559 1806 3559 1356 
Q 3559 666 3084 287 
Q 2609 -91 1734 -91 
Q 1441 -91 1130 -33 
Q 819 25 488 141 
L 488 750 
Q 750 597 1062 519 
Q 1375 441 1716 441 
Q 2309 441 2620 675 
Q 2931 909 2931 1356 
Q 2931 1769 2642 2001 
Q 2353 2234 1838 2234 
L 1294 2234 
L 1294 2753 
L 1863 2753 
Q 2328 2753 2575 2939 
Q 2822 3125 2822 3475 
Q 2822 3834 2567 4026 
Q 2313 4219 1838 4219 
Q 1578 4219 1281 4162 
Q 984 4106 628 3988 
L 628 4550 
Q 988 4650 1302 4700 
Q 1616 4750 1894 4750 
Q 2613 4750 3031 4423 
Q 3450 4097 3450 3541 
Q 3450 3153 3228 2886 
Q 3006 2619 2597 2516 
z
" transform="scale(0.015625)"/>
       </defs>
       <use xlink:href="#DejaVuSans-33"/>
       <use xlink:href="#DejaVuSans-30" x="63.623047"/>
       <use xlink:href="#DejaVuSans-30" x="127.246094"/>
      </g>
     </g>
    </g>
    <g id="xtick_5">
     <g id="line2d_5">
      <g>
       <use xlink:href="#me6eb91f1d9" x="730.793113" y="448.56" style="stroke: #000000; stroke-width: 0.8"/>
      </g>
     </g>
     <g id="text_5">
      <!-- 400 -->
      <g transform="translate(721.249363 463.158437) scale(0.1 -0.1)">
       <defs>
        <path id="DejaVuSans-34" d="M 2419 4116 
L 825 1625 
L 2419 1625 
L 2419 4116 
z
M 2253 4666 
L 3047 4666 
L 3047 1625 
L 3713 1625 
L 3713 1100 
L 3047 1100 
L 3047 0 
L 2419 0 
L 2419 1100 
L 313 1100 
L 313 1709 
L 2253 4666 
z
" transform="scale(0.015625)"/>
       </defs>
       <use xlink:href="#DejaVuSans-34"/>
       <use xlink:href="#DejaVuSans-30" x="63.623047"/>
       <use xlink:href="#DejaVuSans-30" x="127.246094"/>
      </g>
     </g>
    </g>
    <g id="xtick_6">
     <g id="line2d_6">
      <g>
       <use xlink:href="#me6eb91f1d9" x="873.114119" y="448.56" style="stroke: #000000; stroke-width: 0.8"/>
      </g>
     </g>
     <g id="text_6">
      <!-- 500 -->
      <g transform="translate(863.570369 463.158437) scale(0.1 -0.1)">
       <defs>
        <path id="DejaVuSans-35" d="M 691 4666 
L 3169 4666 
L 3169 4134 
L 1269 4134 
L 1269 2991 
Q 1406 3038 1543 3061 
Q 1681 3084 1819 3084 
Q 2600 3084 3056 2656 
Q 3513 2228 3513 1497 
Q 3513 744 3044 326 
Q 2575 -91 1722 -91 
Q 1428 -91 1123 -41 
Q 819 9 494 109 
L 494 744 
Q 775 591 1075 516 
Q 1375 441 1709 441 
Q 2250 441 2565 725 
Q 2881 1009 2881 1497 
Q 2881 1984 2565 2268 
Q 2250 2553 1709 2553 
Q 1456 2553 1204 2497 
Q 953 2441 691 2322 
L 691 4666 
z
" transform="scale(0.015625)"/>
       </defs>
       <use xlink:href="#DejaVuSans-35"/>
       <use xlink:href="#DejaVuSans-30" x="63.623047"/>
       <use xlink:href="#DejaVuSans-30" x="127.246094"/>
      </g>
     </g>
    </g>
    <g id="text_7">
     <!-- Time (ms) -->
     <g transform="translate(491.400781 476.836563) scale(0.1 -0.1)">
      <defs>
       <path id="DejaVuSans-54" d="M -19 4666 
L 3928 4666 
L 3928 4134 
L 2272 4134 
L 2272 0 
L 1638 0 
L 1638 4134 
L -19 4134 
L -19 4666 
z
" transform="scale(0.015625)"/>
       <path id="DejaVuSans-69" d="M 603 3500 
L 1178 3500 
L 1178 0 
L 603 0 
L 603 3500 
z
M 603 4863 
L 1178 4863 
L 1178 4134 
L 603 4134 
L 603 4863 
z
" transform="scale(0.015625)"/>
       <path id="DejaVuSans-6d" d="M 3328 2828 
Q 3544 3216 3844 3400 
Q 4144 3584 4550 3584 
Q 5097 3584 5394 3201 
Q 5691 2819 5691 2113 
L 5691 0 
L 5113 0 
L 5113 2094 
Q 5113 2597 4934 2840 
Q 4756 3084 4391 3084 
Q 3944 3084 3684 2787 
Q 3425 2491 3425 1978 
L 3425 0 
L 2847 0 
L 2847 2094 
Q 2847 2600 2669 2842 
Q 2491 3084 2119 3084 
Q 1678 3084 1418 2786 
Q 1159 2488 1159 1978 
L 1159 0 
L 581 0 
L 581 3500 
L 1159 3500 
L 1159 2956 
Q 1356 3278 1631 3431 
Q 1906 3584 2284 3584 
Q 2666 3584 2933 3390 
Q 3200 3197 3328 2828 
z
" transform="scale(0.015625)"/>
       <path id="DejaVuSans-65" d="M 3597 1894 
L 3597 1613 
L 953 1613 
Q 991 1019 1311 708 
Q 1631 397 2203 397 
Q 2534 397 2845 478 
Q 3156 559 3463 722 
L 3463 178 
Q 3153 47 2828 -22 
Q 2503 -91 2169 -91 
Q 1331 -91 842 396 
Q 353 884 353 1716 
Q 353 2575 817 3079 
Q 1281 3584 2069 3584 
Q 2775 3584 3186 3129 
Q 3597 2675 3597 1894 
z
M 3022 2063 
Q 3016 2534 2758 2815 
Q 2500 3097 2075 3097 
Q 1594 3097 1305 2825 
Q 1016 2553 972 2059 
L 3022 2063 
z
" transform="scale(0.015625)"/>
       <path id="DejaVuSans-20" transform="scale(0.015625)"/>
       <path id="DejaVuSans-28" d="M 1984 4856 
Q 1566 4138 1362 3434 
Q 1159 2731 1159 2009 
Q 1159 1288 1364 580 
Q 1569 -128 1984 -844 
L 1484 -844 
Q 1016 -109 783 600 
Q 550 1309 550 2009 
Q 550 2706 781 3412 
Q 1013 4119 1484 4856 
L 1984 4856 
z
" transform="scale(0.015625)"/>
       <path id="DejaVuSans-73" d="M 2834 3397 
L 2834 2853 
Q 2591 2978 2328 3040 
Q 2066 3103 1784 3103 
Q 1356 3103 1142 2972 
Q 928 2841 928 2578 
Q 928 2378 1081 2264 
Q 1234 2150 1697 2047 
L 1894 2003 
Q 2506 1872 2764 1633 
Q 3022 1394 3022 966 
Q 3022 478 2636 193 
Q 2250 -91 1575 -91 
Q 1294 -91 989 -36 
Q 684 19 347 128 
L 347 722 
Q 666 556 975 473 
Q 1284 391 1588 391 
Q 1994 391 2212 530 
Q 2431 669 2431 922 
Q 2431 1156 2273 1281 
Q 2116 1406 1581 1522 
L 1381 1569 
Q 847 1681 609 1914 
Q 372 2147 372 2553 
Q 372 3047 722 3315 
Q 1072 3584 1716 3584 
Q 2034 3584 2315 3537 
Q 2597 3491 2834 3397 
z
" transform="scale(0.015625)"/>
       <path id="DejaVuSans-29" d="M 513 4856 
L 1013 4856 
Q 1481 4119 1714 3412 
Q 1947 2706 1947 2009 
Q 1947 1309 1714 600 
Q 1481 -109 1013 -844 
L 513 -844 
Q 928 -128 1133 580 
Q 1338 1288 1338 2009 
Q 1338 2731 1133 3434 
Q 928 4138 513 4856 
z
" transform="scale(0.015625)"/>
      </defs>
      <use xlink:href="#DejaVuSans-54"/>
      <use xlink:href="#DejaVuSans-69" x="57.958984"/>
      <use xlink:href="#DejaVuSans-6d" x="85.742188"/>
      <use xlink:href="#DejaVuSans-65" x="183.154297"/>
      <use xlink:href="#DejaVuSans-20" x="244.677734"/>
      <use xlink:href="#DejaVuSans-28" x="276.464844"/>
      <use xlink:href="#DejaVuSans-6d" x="315.478516"/>
      <use xlink:href="#DejaVuSans-73" x="412.890625"/>
      <use xlink:href="#DejaVuSans-29" x="464.990234"/>
     </g>
    </g>
   </g>
   <g id="matplotlib.axis_2">
    <g id="ytick_1">
     <g id="line2d_7">
      <defs>
       <path id="m8891d7dd40" d="M 0 0 
L -3.5 0 
" style="stroke: #000000; stroke-width: 0.8"/>
      </defs>
      <g>
       <use xlink:href="#m8891d7dd40" x="126" y="448.56" style="stroke: #000000; stroke-width: 0.8"/>
      </g>
     </g>
     <g id="text_8">
      <!-- −2.0 -->
      <g transform="translate(94.717187 452.359219) scale(0.1 -0.1)">
       <defs>
        <path id="DejaVuSans-2212" d="M 678 2272 
L 4684 2272 
L 4684 1741 
L 678 1741 
L 678 2272 
z
" transform="scale(0.015625)"/>
        <path id="DejaVuSans-2e" d="M 684 794 
L 1344 794 
L 1344 0 
L 684 0 
L 684 794 
z
" transform="scale(0.015625)"/>
       </defs>
       <use xlink:href="#DejaVuSans-2212"/>
       <use xlink:href="#DejaVuSans-32" x="83.789062"/>
       <use xlink:href="#DejaVuSans-2e" x="147.412109"/>
       <use xlink:href="#DejaVuSans-30" x="179.199219"/>
      </g>
     </g>
    </g>
    <g id="ytick_2">
     <g id="line2d_8">
      <g>
       <use xlink:href="#m8891d7dd40" x="126" y="400.05" style="stroke: #000000; stroke-width: 0.8"/>
      </g>
     </g>
     <g id="text_9">
      <!-- −1.5 -->
      <g transform="translate(94.717187 403.849219) scale(0.1 -0.1)">
       <use xlink:href="#DejaVuSans-2212"/>
       <use xlink:href="#DejaVuSans-31" x="83.789062"/>
       <use xlink:href="#DejaVuSans-2e" x="147.412109"/>
       <use xlink:href="#DejaVuSans-35" x="179.199219"/>
      </g>
     </g>
    </g>
    <g id="ytick_3">
     <g id="line2d_9">
      <g>
       <use xlink:href="#m8891d7dd40" x="126" y="351.54" style="stroke: #000000; stroke-width: 0.8"/>
      </g>
     </g>
     <g id="text_10">
      <!-- −1.0 -->
      <g transform="translate(94.717187 355.339219) scale(0.1 -0.1)">
       <use xlink:href="#DejaVuSans-2212"/>
       <use xlink:href="#DejaVuSans-31" x="83.789062"/>
       <use xlink:href="#DejaVuSans-2e" x="147.412109"/>
       <use xlink:href="#DejaVuSans-30" x="179.199219"/>
      </g>
     </g>
    </g>
    <g id="ytick_4">
     <g id="line2d_10">
      <g>
       <use xlink:href="#m8891d7dd40" x="126" y="303.03" style="stroke: #000000; stroke-width: 0.8"/>
      </g>
     </g>
     <g id="text_11">
      <!-- −0.5 -->
      <g transform="translate(94.717187 306.829219) scale(0.1 -0.1)">
       <use xlink:href="#DejaVuSans-2212"/>
       <use xlink:href="#DejaVuSans-30" x="83.789062"/>
       <use xlink:href="#DejaVuSans-2e" x="147.412109"/>
       <use xlink:href="#DejaVuSans-35" x="179.199219"/>
      </g>
     </g>
    </g>
    <g id="ytick_5">
     <g id="line2d_11">
      <g>
       <use xlink:href="#m8891d7dd40" x="126" y="254.52" style="stroke: #000000; stroke-width: 0.8"/>
      </g>
     </g>
     <g id="text_12">
      <!-- 0.0 -->
      <g transform="translate(103.096875 258.319219) scale(0.1 -0.1)">
       <use xlink:href="#DejaVuSans-30"/>
       <use xlink:href="#DejaVuSans-2e" x="63.623047"/>
       <use xlink:href="#DejaVuSans-30" x="95.410156"/>
      </g>
     </g>
    </g>
    <g id="ytick_6">
     <g id="line2d_12">
      <g>
       <use xlink:href="#m8891d7dd40" x="126" y="206.01" style="stroke: #000000; stroke-width: 0.8"/>
      </g>
     </g>
     <g id="text_13">
      <!-- 0.5 -->
      <g transform="translate(103.096875 209.809219) scale(0.1 -0.1)">
       <use xlink:href="#DejaVuSans-30"/>
       <use xlink:href="#DejaVuSans-2e" x="63.623047"/>
       <use xlink:href="#DejaVuSans-35" x="95.410156"/>
      </g>
     </g>
    </g>
    <g id="ytick_7">
     <g id="line2d_13">
      <g>
       <use xlink:href="#m8891d7dd40" x="126" y="157.5" style="stroke: #000000; stroke-width: 0.8"/>
      </g>
     </g>
     <g id="text_14">
      <!-- 1.0 -->
      <g transform="translate(103.096875 161.299219) scale(0.1 -0.1)">
       <use xlink:href="#DejaVuSans-31"/>
       <use xlink:href="#DejaVuSans-2e" x="63.623047"/>
       <use xlink:href="#DejaVuSans-30" x="95.410156"/>
      </g>
     </g>
    </g>
    <g id="ytick_8">
     <g id="line2d_14">
      <g>
       <use xlink:href="#m8891d7dd40" x="126" y="108.99" style="stroke: #000000; stroke-width: 0.8"/>
      </g>
     </g>
     <g id="text_15">
      <!-- 1.5 -->
      <g transform="translate(103.096875 112.789219) scale(0.1 -0.1)">
       <use xlink:href="#DejaVuSans-31"/>
       <use xlink:href="#DejaVuSans-2e" x="63.623047"/>
       <use xlink:href="#DejaVuSans-35" x="95.410156"/>
      </g>
     </g>
    </g>
    <g id="ytick_9">
     <g id="line2d_15">
      <g>
       <use xlink:href="#m8891d7dd40" x="126" y="60.48" style="stroke: #000000; stroke-width: 0.8"/>
      </g>
     </g>
     <g id="text_16">
      <!-- 2.0 -->
      <g transform="translate(103.096875 64.279219) scale(0.1 -0.1)">
       <use xlink:href="#DejaVuSans-32"/>
       <use xlink:href="#DejaVuSans-2e" x="63.623047"/>
       <use xlink:href="#DejaVuSans-30" x="95.410156"/>
      </g>
     </g>
    </g>
    <g id="text_17">
     <!-- Amplitude -->
     <g transform="translate(88.6375 280.142656) rotate(-90) scale(0.1 -0.1)">
      <defs>
       <path id="DejaVuSans-41" d="M 2188 4044 
L 1331 1722 
L 3047 1722 
L 2188 4044 
z
M 1831 4666 
L 2547 4666 
L 4325 0 
L 3669 0 
L 3244 1197 
L 1141 1197 
L 716 0 
L 50 0 
L 1831 4666 
z
" transform="scale(0.015625)"/>
       <path id="DejaVuSans-70" d="M 1159 525 
L 1159 -1331 
L 581 -1331 
L 581 3500 
L 1159 3500 
L 1159 2969 
Q 1341 3281 1617 3432 
Q 1894 3584 2278 3584 
Q 2916 3584 3314 3078 
Q 3713 2572 3713 1747 
Q 3713 922 3314 415 
Q 2916 -91 2278 -91 
Q 1894 -91 1617 61 
Q 1341 213 1159 525 
z
M 3116 1747 
Q 3116 2381 2855 2742 
Q 2594 3103 2138 3103 
Q 1681 3103 1420 2742 
Q 1159 2381 1159 1747 
Q 1159 1113 1420 752 
Q 1681 391 2138 391 
Q 2594 391 2855 752 
Q 3116 1113 3116 1747 
z
" transform="scale(0.015625)"/>
       <path id="DejaVuSans-6c" d="M 603 4863 
L 1178 4863 
L 1178 0 
L 603 0 
L 603 4863 
z
" transform="scale(0.015625)"/>
       <path id="DejaVuSans-74" d="M 1172 4494 
L 1172 3500 
L 2356 3500 
L 2356 3053 
L 1172 3053 
L 1172 1153 
Q 1172 725 1289 603 
Q 1406 481 1766 481 
L 2356 481 
L 2356 0 
L 1766 0 
Q 1100 0 847 248 
Q 594 497 594 1153 
L 594 3053 
L 172 3053 
L 172 3500 
L 594 3500 
L 594 4494 
L 1172 4494 
z
" transform="scale(0.015625)"/>
       <path id="DejaVuSans-75" d="M 544 1381 
L 544 3500 
L 1119 3500 
L 1119 1403 
Q 1119 906 1312 657 
Q 1506 409 1894 409 
Q 2359 409 2629 706 
Q 2900 1003 2900 1516 
L 2900 3500 
L 3475 3500 
L 3475 0 
L 2900 0 
L 2900 538 
Q 2691 219 2414 64 
Q 2138 -91 1772 -91 
Q 1169 -91 856 284 
Q 544 659 544 1381 
z
M 1991 3584 
L 1991 3584 
z
" transform="scale(0.015625)"/>
       <path id="DejaVuSans-64" d="M 2906 2969 
L 2906 4863 
L 3481 4863 
L 3481 0 
L 2906 0 
L 2906 525 
Q 2725 213 2448 61 
Q 2172 -91 1784 -91 
Q 1150 -91 751 415 
Q 353 922 353 1747 
Q 353 2572 751 3078 
Q 1150 3584 1784 3584 
Q 2172 3584 2448 3432 
Q 2725 3281 2906 2969 
z
M 947 1747 
Q 947 1113 1208 752 
Q 1469 391 1925 391 
Q 2381 391 2643 752 
Q 2906 1113 2906 1747 
Q 2906 2381 2643 2742 
Q 2381 3103 1925 3103 
Q 1469 3103 1208 2742 
Q 947 2381 947 1747 
z
" transform="scale(0.015625)"/>
      </defs>
      <use xlink:href="#DejaVuSans-41"/>
      <use xlink:href="#DejaVuSans-6d" x="68.408203"/>
      <use xlink:href="#DejaVuSans-70" x="165.820312"/>
      <use xlink:href="#DejaVuSans-6c" x="229.296875"/>
      <use xlink:href="#DejaVuSans-69" x="257.080078"/>
      <use xlink:href="#DejaVuSans-74" x="284.863281"/>
      <use xlink:href="#DejaVuSans-75" x="324.072266"/>
      <use xlink:href="#DejaVuSans-64" x="387.451172"/>
      <use xlink:href="#DejaVuSans-65" x="450.927734"/>
     </g>
    </g>
   </g>
   <g id="line2d_16">
    <path d="M 161.509091 254.177148 
L 162.932301 254.65818 
L 168.625141 278.652074 
L 172.894771 296.960165 
L 175.741191 308.476079 
L 181.434032 331.262582 
L 189.973292 361.264569 
L 191.396502 366.089324 
L 194.242922 374.492959 
L 195.666132 378.649079 
L 199.935762 389.857132 
L 204.205393 399.222832 
L 208.475023 406.722127 
L 209.898233 408.930065 
L 211.321443 410.63292 
L 212.744653 411.941328 
L 214.167863 413.538355 
L 215.591073 414.870815 
L 217.014283 415.972379 
L 218.437493 416.766082 
L 219.860703 417.218252 
L 224.130333 417.247114 
L 226.976754 416.313912 
L 228.399964 415.443243 
L 229.823174 414.105973 
L 231.246384 413.057323 
L 234.092804 409.608321 
L 236.939224 405.418529 
L 241.208854 397.611374 
L 242.632064 394.157562 
L 244.055274 391.213644 
L 246.901694 384.113606 
L 248.324904 380.323071 
L 252.594535 367.81623 
L 258.287375 348.853935 
L 265.403425 322.142208 
L 271.096265 299.153672 
L 275.365895 281.172683 
L 292.444416 208.238558 
L 298.137256 185.105713 
L 300.983676 174.239192 
L 305.253307 158.620071 
L 310.946147 139.874241 
L 312.369357 135.501657 
L 318.062197 120.209638 
L 319.485407 116.717343 
L 323.755037 107.914451 
L 326.601457 102.738543 
L 328.024668 100.60757 
L 330.871088 97.019069 
L 332.294298 95.378748 
L 333.717508 94.503269 
L 335.140718 93.151568 
L 336.563928 92.295331 
L 339.410348 91.588213 
L 342.256768 91.588213 
L 343.679978 91.84316 
L 345.103188 92.237607 
L 346.526398 93.089034 
L 347.949608 94.416684 
L 349.372818 95.316214 
L 352.219238 98.664199 
L 353.642449 100.429588 
L 355.065659 102.594234 
L 359.335289 110.377337 
L 363.604919 119.882536 
L 365.028129 123.394072 
L 370.720969 139.57119 
L 374.990599 153.521128 
L 376.413809 158.312211 
L 382.10665 179.078377 
L 387.79949 201.970707 
L 396.33875 237.764324 
L 410.570851 298.792898 
L 419.110111 332.883661 
L 426.226161 358.392806 
L 427.649371 362.664374 
L 429.072582 367.532421 
L 430.495792 371.914626 
L 431.919002 375.69554 
L 433.342212 380.068124 
L 434.765422 383.935624 
L 437.611842 390.987558 
L 439.035052 393.917045 
L 440.458262 397.40934 
L 444.727892 405.250168 
L 447.574312 409.492873 
L 450.420732 412.946685 
L 451.843942 414.048249 
L 453.267152 415.380709 
L 454.690363 416.256188 
L 457.536783 417.247114 
L 461.806413 417.247114 
L 463.229623 416.766082 
L 464.652833 416.030103 
L 467.499253 413.822164 
L 468.922463 412.494515 
L 471.768883 409.040702 
L 474.615303 404.557481 
L 478.884934 396.504999 
L 483.154564 386.576492 
L 487.424194 374.796009 
L 488.847404 370.769769 
L 490.270614 366.397185 
L 497.386664 341.893397 
L 500.233084 331.53677 
L 511.618765 285.174872 
L 528.697285 211.9858 
L 538.659756 172.541148 
L 542.929386 157.176974 
L 544.352596 152.140566 
L 548.622226 138.474437 
L 552.891856 126.405335 
L 554.315066 122.489732 
L 555.738277 119.007057 
L 560.007907 109.699081 
L 562.854327 104.455829 
L 565.700747 99.948556 
L 568.547167 96.456261 
L 569.970377 95.094939 
L 572.816797 92.862949 
L 574.240007 92.069246 
L 575.663217 91.617075 
L 579.932848 91.588213 
L 582.779268 92.521416 
L 584.202478 93.392085 
L 585.625688 94.729355 
L 587.048898 95.778005 
L 589.895318 99.227007 
L 592.741738 103.416799 
L 597.011368 111.219144 
L 598.434578 114.677766 
L 599.857788 117.621684 
L 602.704208 124.596653 
L 604.127418 128.512257 
L 605.550629 132.836737 
L 606.973839 136.713858 
L 608.397049 140.922891 
L 609.820259 145.762077 
L 611.243469 150.134661 
L 612.666679 155.325 
L 614.089889 159.981393 
L 621.205939 186.693119 
L 624.052359 197.838639 
L 626.898779 209.681655 
L 631.16841 227.662645 
L 648.24693 300.596769 
L 653.93977 323.729615 
L 656.786191 334.596136 
L 662.479031 354.828357 
L 663.902241 359.835903 
L 668.171871 373.32405 
L 669.595081 377.095344 
L 672.441501 385.21517 
L 675.287921 392.113174 
L 676.711131 395.03304 
L 678.134341 398.289629 
L 682.403972 406.091974 
L 685.250392 410.060491 
L 688.096812 413.456579 
L 689.520022 414.332058 
L 690.943232 415.664518 
L 692.366442 416.539997 
L 695.212862 417.247114 
L 698.059282 417.247114 
L 699.482492 416.992167 
L 700.905702 416.616962 
L 702.328912 415.746293 
L 703.752122 414.418644 
L 705.175332 413.519114 
L 708.021753 410.214421 
L 709.444963 408.420171 
L 710.868173 406.241094 
L 715.137803 398.515715 
L 719.407433 388.866206 
L 720.830643 385.441255 
L 726.523483 369.369965 
L 732.216324 350.523117 
L 736.485954 335.10603 
L 739.332374 324.0952 
L 742.178794 312.776509 
L 752.141264 271.099866 
L 766.373365 210.04243 
L 774.912625 175.951667 
L 782.028676 150.456952 
L 783.451886 146.170954 
L 784.875096 141.302907 
L 786.298306 136.920702 
L 787.721516 133.154219 
L 789.144726 128.776824 
L 791.991146 121.354495 
L 793.414356 117.924735 
L 794.837566 114.932713 
L 796.260776 111.430798 
L 800.530406 103.642884 
L 803.376826 99.342455 
L 806.223246 95.888643 
L 807.646457 94.80632 
L 809.069667 93.454619 
L 810.492877 92.57914 
L 813.339297 91.588213 
L 817.608927 91.588213 
L 819.032137 92.069246 
L 820.455347 92.805225 
L 821.878557 93.796152 
L 824.724977 96.340813 
L 827.571397 99.794625 
L 830.417817 104.263416 
L 834.687448 112.330328 
L 838.957078 122.254026 
L 841.803498 129.90244 
L 846.073128 142.428522 
L 853.189178 166.9275 
L 856.035598 177.298557 
L 864.574859 211.456665 
L 871.690909 241.699169 
L 871.690909 241.699169 
" clip-path="url(#p95e56dd95f)" style="fill: none; stroke-dasharray: 1.5,2.475; stroke-dashoffset: 0; stroke: #000000; stroke-width: 1.5"/>
   </g>
   <g id="line2d_17">
    <path d="M 161.509091 250.112662 
L 162.932301 243.208188 
L 164.355511 247.054966 
L 165.778721 247.794731 
L 167.201931 251.099015 
L 170.048351 252.085368 
L 171.471561 251.148333 
L 172.894771 253.31831 
L 174.317981 254.452617 
L 175.741191 258.693936 
L 177.164402 269.099965 
L 178.587612 271.861753 
L 180.010822 278.223733 
L 181.434032 287.544773 
L 182.857242 288.037949 
L 184.280452 299.775555 
L 185.703662 324.286434 
L 187.126872 335.678819 
L 188.550082 339.574911 
L 189.973292 340.511946 
L 191.396502 341.202394 
L 192.819712 343.569641 
L 194.242922 347.268469 
L 195.666132 352.742727 
L 197.089342 352.841371 
L 198.512552 355.701785 
L 199.935762 361.669227 
L 201.358972 363.64194 
L 202.782183 369.905279 
L 204.205393 371.730032 
L 205.628603 375.527497 
L 207.051813 373.505469 
L 208.475023 375.280905 
L 209.898233 374.442509 
L 211.321443 374.097285 
L 212.744653 374.245233 
L 214.167863 372.519112 
L 215.591073 390.66802 
L 217.014283 389.139175 
L 218.437493 390.569376 
L 219.860703 395.895687 
L 222.707123 395.501147 
L 224.130333 396.240911 
L 225.553543 397.375216 
L 226.976754 397.917716 
L 228.399964 397.079319 
L 229.823174 394.021618 
L 231.246384 395.303882 
L 232.669594 384.355354 
L 234.092804 387.215779 
L 235.516014 384.40467 
L 236.939224 381.840152 
L 238.362434 385.538974 
L 239.785644 380.656532 
L 241.208854 373.505469 
L 242.632064 374.146601 
L 244.055274 371.039583 
L 245.478484 365.269417 
L 246.901694 366.798262 
L 248.324904 369.066882 
L 249.748114 365.959865 
L 251.171324 359.548566 
L 252.594535 356.885417 
L 254.017745 357.773129 
L 255.440955 353.729084 
L 256.864165 355.10998 
L 258.287375 329.612745 
L 259.710585 336.171992 
L 261.133795 329.612745 
L 262.557005 332.325216 
L 263.980215 329.366153 
L 265.403425 324.385072 
L 266.826635 327.886624 
L 268.249845 322.510997 
L 269.673055 316.494245 
L 271.096265 317.431279 
L 272.519475 311.21725 
L 273.942685 312.351561 
L 275.365895 311.710428 
L 276.789105 308.060923 
L 278.212316 276.152391 
L 279.635526 276.990791 
L 281.058736 275.412625 
L 282.481946 277.730556 
L 283.905156 272.552202 
L 285.328366 270.135636 
L 286.751576 268.95201 
L 288.174786 264.562739 
L 289.597996 257.954171 
L 291.021206 252.282639 
L 292.444416 252.825133 
L 293.867626 248.534496 
L 295.290836 245.180895 
L 296.714046 170.711216 
L 298.137256 197.737297 
L 300.983676 185.753101 
L 302.406887 180.278843 
L 303.830097 178.947268 
L 305.253307 177.812958 
L 306.676517 175.593665 
L 308.099727 173.620958 
L 309.522937 169.971452 
L 310.946147 172.733239 
L 312.369357 171.697567 
L 313.792567 165.680814 
L 315.215777 166.716486 
L 316.638987 161.439492 
L 318.062197 163.757423 
L 319.485407 162.031308 
L 320.908617 162.623119 
L 322.331827 163.953895 
L 323.755037 163.31363 
L 325.178247 162.506826 
L 326.601457 156.190672 
L 328.024668 150.989699 
L 329.447878 147.275379 
L 330.871088 143.877173 
L 332.294298 140.790141 
L 333.717508 139.176369 
L 335.140718 138.043834 
L 336.563928 135.160671 
L 337.987138 131.486785 
L 339.410348 130.928509 
L 340.833558 133.862492 
L 342.256768 140.09716 
L 343.679978 148.042219 
L 345.103188 153.301147 
L 346.526398 154.852661 
L 347.949608 154.743469 
L 349.372818 154.241785 
L 350.796028 153.981869 
L 352.219238 154.661098 
L 353.642449 156.288853 
L 355.065659 158.894567 
L 357.912079 166.479621 
L 359.335289 168.768551 
L 360.758499 168.974264 
L 363.604919 167.142075 
L 365.028129 167.226753 
L 366.451339 167.708568 
L 367.874549 167.351599 
L 369.297759 168.548757 
L 370.720969 174.516361 
L 372.144179 176.995454 
L 373.567389 175.751143 
L 374.990599 176.243188 
L 376.413809 178.137369 
L 377.837019 184.163114 
L 379.26023 202.341573 
L 380.68344 211.537553 
L 382.10665 207.104137 
L 383.52986 201.141934 
L 384.95307 196.707002 
L 386.37628 196.32907 
L 387.79949 202.157702 
L 390.64591 219.704396 
L 392.06912 228.44398 
L 393.49233 235.094444 
L 394.91554 240.548369 
L 396.33875 244.491939 
L 397.76196 247.752259 
L 399.18517 251.532648 
L 400.60838 254.525807 
L 403.454801 261.99822 
L 404.878011 267.225893 
L 406.301221 269.099965 
L 407.724431 268.508153 
L 409.147641 271.220624 
L 410.570851 267.127258 
L 411.994061 276.103074 
L 413.417271 288.481808 
L 414.840481 297.1124 
L 416.263691 303.326429 
L 417.686901 304.411417 
L 419.110111 304.608687 
L 420.533321 306.384124 
L 421.956531 316.395607 
L 423.379741 314.324268 
L 424.802951 320.094434 
L 426.226161 329.810015 
L 427.649371 332.769072 
L 429.072582 342.632607 
L 430.495792 354.56748 
L 431.919002 362.113083 
L 433.342212 369.017566 
L 434.765422 376.95771 
L 436.188632 373.75206 
L 437.611842 374.195917 
L 439.035052 375.083629 
L 440.458262 376.41521 
L 441.881472 379.177003 
L 443.304682 379.571543 
L 444.727892 382.727877 
L 446.151102 387.067831 
L 447.574312 390.66802 
L 448.997522 385.588302 
L 450.420732 384.059445 
L 453.267152 379.029043 
L 454.690363 384.848537 
L 456.113573 383.664905 
L 457.536783 381.889468 
L 458.959993 384.158089 
L 460.383203 385.785566 
L 461.806413 383.368997 
L 463.229623 389.089848 
L 464.652833 387.314411 
L 466.076043 382.875825 
L 467.499253 379.127687 
L 468.922463 380.064716 
L 470.345673 382.579917 
L 471.768883 379.374267 
L 473.192093 374.442509 
L 474.615303 373.949325 
L 476.038513 372.223204 
L 477.461723 371.532767 
L 478.884934 367.932578 
L 480.308144 365.269417 
L 481.731354 366.107813 
L 483.154564 365.910549 
L 484.577774 361.077411 
L 486.000984 361.077411 
L 487.424194 359.548566 
L 488.847404 356.934733 
L 490.270614 356.737457 
L 491.693824 351.361836 
L 493.117034 288.037949 
L 494.540244 298.493293 
L 495.963454 294.991739 
L 497.386664 294.794469 
L 498.809874 285.473431 
L 500.233084 283.204816 
L 501.656294 286.55842 
L 503.079504 288.333854 
L 504.502715 280.78825 
L 505.925925 279.555311 
L 507.349135 280.936204 
L 508.772345 279.851216 
L 510.195555 274.278319 
L 511.618765 272.897424 
L 513.041975 268.705423 
L 514.465185 268.95201 
L 515.888395 267.817704 
L 517.311605 249.175626 
L 518.734815 243.208188 
L 521.581235 238.424374 
L 523.004445 237.733927 
L 525.850865 235.95849 
L 527.274075 233.295337 
L 528.697285 215.639613 
L 530.120496 187.38059 
L 531.543706 185.753101 
L 532.966916 176.678653 
L 534.390126 169.971452 
L 535.813336 166.617848 
L 537.236546 167.702837 
L 538.659756 161.439492 
L 540.082966 130.073458 
L 541.506176 126.769176 
L 542.929386 125.832136 
L 544.352596 119.667429 
L 545.775806 117.744044 
L 547.199016 116.313831 
L 548.622226 119.864693 
L 550.045436 112.910906 
L 551.468646 112.516366 
L 552.891856 126.966441 
L 554.315066 123.514211 
L 557.161487 115.327475 
L 558.584697 115.376791 
L 560.007907 115.722015 
L 561.431117 113.305446 
L 562.854327 114.587711 
L 564.277537 117.990624 
L 565.700747 112.121826 
L 567.123957 110.543665 
L 568.547167 111.382061 
L 569.970377 115.820647 
L 571.393587 114.538395 
L 572.816797 118.089268 
L 574.240007 119.716745 
L 575.663217 124.007383 
L 577.086427 126.890095 
L 578.509637 127.332483 
L 579.932848 125.249063 
L 581.356058 126.081955 
L 584.202478 129.944327 
L 585.625688 132.333994 
L 588.472108 138.040214 
L 589.895318 141.351065 
L 591.318528 145.313966 
L 592.741738 149.851208 
L 594.164948 153.480115 
L 595.588158 156.558495 
L 597.011368 158.508262 
L 598.434578 159.592897 
L 599.857788 160.345667 
L 601.280998 160.763507 
L 602.704208 160.919615 
L 604.127418 161.278833 
L 605.550629 159.516107 
L 606.973839 159.417469 
L 608.397049 162.277894 
L 609.820259 159.664055 
L 611.243469 165.631498 
L 612.666679 169.141984 
L 614.089889 171.04126 
L 615.513099 172.496918 
L 616.936309 174.154263 
L 619.782729 179.422849 
L 621.205939 183.784766 
L 624.052359 193.556591 
L 625.475569 198.568979 
L 626.898779 202.929214 
L 629.745199 213.61218 
L 631.16841 219.922117 
L 632.59162 228.739793 
L 634.01483 234.384161 
L 635.43804 238.720281 
L 636.86125 246.167248 
L 638.28446 247.202919 
L 639.70767 250.556521 
L 641.13088 251.394921 
L 642.55409 256.523959 
L 643.9773 258.595301 
L 645.40051 281.330745 
L 646.82372 283.402089 
L 648.24693 288.087268 
L 649.67014 288.827032 
L 651.09335 290.997009 
L 652.51656 302.389391 
L 653.93977 301.896213 
L 655.362981 304.263463 
L 656.786191 311.513158 
L 659.632611 317.332647 
L 661.055821 317.431279 
L 662.479031 316.198336 
L 663.902241 327.492084 
L 665.325451 336.221313 
L 666.748661 337.848796 
L 668.171871 342.040796 
L 669.595081 345.493032 
L 671.018291 349.487762 
L 672.441501 364.825561 
L 673.864711 365.565325 
L 675.287921 366.699629 
L 676.711131 364.529652 
L 678.134341 370.645043 
L 679.557551 370.891635 
L 680.980762 374.491825 
L 682.403972 374.097285 
L 683.827182 373.850693 
L 686.673602 373.653417 
L 688.096812 383.023773 
L 689.520022 379.867451 
L 690.943232 384.453986 
L 692.366442 391.802325 
L 693.789652 388.399399 
L 695.212862 386.919871 
L 696.636072 388.744624 
L 698.059282 389.188491 
L 699.482492 391.111877 
L 700.905702 391.703693 
L 702.328912 388.892583 
L 705.175332 391.555733 
L 706.598543 393.922986 
L 708.021753 394.317526 
L 709.444963 390.026888 
L 710.868173 389.681664 
L 712.291383 386.969187 
L 713.714593 387.856911 
L 715.137803 383.862181 
L 716.561013 381.051072 
L 717.984223 362.1624 
L 719.407433 364.776244 
L 720.830643 363.543296 
L 722.253853 363.937836 
L 723.677063 366.305089 
L 725.100273 364.726928 
L 726.523483 360.386974 
L 727.946693 359.10471 
L 729.369903 357.625181 
L 730.793113 352.348187 
L 732.216324 352.348187 
L 733.639534 340.166727 
L 735.062744 314.866762 
L 736.485954 313.091325 
L 737.909164 303.674903 
L 739.332374 301.215862 
L 740.755584 297.028126 
L 742.178794 299.775555 
L 743.602004 302.981201 
L 745.025214 299.726236 
L 746.448424 298.591931 
L 747.871634 296.421952 
L 749.294844 294.843788 
L 750.718054 295.238328 
L 752.141264 268.853375 
L 753.564474 272.404248 
L 754.987684 268.508153 
L 756.410895 267.324528 
L 757.834105 265.894316 
L 759.257315 264.760009 
L 760.680525 263.970926 
L 762.103735 263.872291 
L 763.526945 264.414786 
L 764.950155 263.724338 
L 766.373365 266.190222 
L 767.796575 258.940525 
L 769.219785 261.99822 
L 770.642995 256.129417 
L 772.066205 254.551252 
L 773.489415 203.507463 
L 774.912625 207.896736 
L 776.335835 214.653259 
L 777.759045 208.439231 
L 779.182255 207.65015 
L 780.605465 205.332216 
L 782.028676 205.036314 
L 783.451886 209.918762 
L 784.875096 203.310193 
L 786.298306 202.817015 
L 787.721516 168.886463 
L 789.144726 158.233843 
L 791.991146 146.792142 
L 793.414356 145.904429 
L 794.837566 144.868757 
L 796.260776 144.81944 
L 797.683986 146.200337 
L 799.107196 142.008331 
L 800.530406 149.997791 
L 801.953616 129.678918 
L 803.376826 132.144803 
L 804.800036 133.525688 
L 806.223246 131.898211 
L 807.646457 133.624331 
L 809.069667 135.153176 
L 810.492877 136.435441 
L 811.916087 138.605418 
L 813.339297 141.761739 
L 814.762507 140.972659 
L 816.185717 142.205607 
L 817.608927 142.994688 
L 819.032137 146.383965 
L 820.455347 147.37112 
L 823.301767 142.891302 
L 824.724977 140.843678 
L 826.148187 138.194119 
L 828.994607 132.057736 
L 830.417817 131.386429 
L 831.841028 133.710634 
L 833.264238 138.090166 
L 834.687448 141.415486 
L 836.110658 144.273158 
L 837.533868 149.575794 
L 838.957078 158.285958 
L 840.380288 172.496426 
L 841.803498 174.01817 
L 843.226708 174.03974 
L 844.649918 181.647416 
L 846.073128 173.558058 
L 847.496338 169.525988 
L 848.919548 168.09463 
L 850.342758 169.677591 
L 851.765968 173.538691 
L 853.189178 182.062988 
L 854.612388 200.813318 
L 856.035598 232.976873 
L 857.458809 253.203206 
L 858.882019 265.037222 
L 860.305229 270.872268 
L 861.728439 271.699339 
L 863.151649 271.420096 
L 864.574859 271.383454 
L 865.998069 271.652926 
L 867.421279 271.005246 
L 868.844489 269.012509 
L 871.690909 260.557427 
L 871.690909 260.557427 
" clip-path="url(#p95e56dd95f)" style="fill: none; stroke: #ff0000; stroke-width: 1.5; stroke-linecap: square"/>
   </g>
   <g id="line2d_18">
    <path d="M 161.509091 250.112662 
L 162.932301 243.208188 
L 164.355511 247.054966 
L 165.778721 247.794731 
L 167.201931 251.099015 
L 170.048351 252.085368 
L 171.471561 251.148333 
L 172.894771 253.31831 
L 174.317981 254.452617 
L 175.741191 258.693936 
L 177.164402 269.099964 
L 178.587612 271.861754 
L 180.010822 278.223733 
L 181.434032 287.544772 
L 182.857242 288.037949 
L 184.280452 299.775554 
L 185.703662 324.286435 
L 187.126872 335.678817 
L 188.550082 339.574913 
L 189.973292 340.511948 
L 191.396502 341.202396 
L 192.819712 343.569644 
L 194.242922 347.268469 
L 195.666132 352.74273 
L 197.089342 352.841366 
L 198.512552 355.70179 
L 199.935762 361.669228 
L 201.358972 363.641935 
L 202.782183 369.905279 
L 204.205393 371.730033 
L 205.628603 375.527493 
L 207.051813 373.505469 
L 208.475023 375.280905 
L 209.898233 374.442504 
L 211.321443 374.097281 
L 212.744653 374.245234 
L 214.167863 372.519115 
L 215.591073 390.668017 
L 217.014283 389.13917 
L 218.437493 390.569382 
L 219.860703 395.89569 
L 222.707123 395.501149 
L 224.130333 396.240914 
L 225.553543 397.37522 
L 226.976754 397.917715 
L 228.399964 397.079314 
L 229.823174 394.021619 
L 231.246384 395.303878 
L 232.669594 384.355356 
L 234.092804 387.215781 
L 235.516014 384.404673 
L 236.939224 381.840155 
L 238.362434 385.53898 
L 239.785644 380.656531 
L 241.208854 373.505469 
L 242.632064 374.146598 
L 244.055274 371.039585 
L 245.478484 365.269418 
L 246.901694 366.798266 
L 248.324904 369.066879 
L 249.748114 365.959865 
L 251.171324 359.548568 
L 252.594535 356.885414 
L 254.017745 357.773132 
L 255.440955 353.729084 
L 256.864165 355.109978 
L 258.287375 329.612744 
L 259.710585 336.171994 
L 261.133795 329.612744 
L 262.557005 332.325215 
L 263.980215 329.366155 
L 265.403425 324.385071 
L 266.826635 327.886625 
L 268.249845 322.510999 
L 269.673055 316.494244 
L 271.096265 317.431279 
L 272.519475 311.217253 
L 273.942685 312.35156 
L 275.365895 311.71043 
L 276.789105 308.060922 
L 278.212316 276.152391 
L 279.635526 276.990791 
L 281.058736 275.412626 
L 282.481946 277.730556 
L 283.905156 272.552201 
L 285.328366 270.135635 
L 286.751576 268.952011 
L 288.174786 264.562739 
L 289.597996 257.954171 
L 291.021206 252.282639 
L 292.444416 252.825133 
L 293.867626 248.534496 
L 295.290836 245.180895 
L 296.714046 170.711215 
L 298.137256 197.737298 
L 300.983676 185.753104 
L 302.406887 180.278843 
L 303.830097 178.947266 
L 305.253307 177.812959 
L 306.676517 175.593664 
L 308.099727 173.620958 
L 309.522937 169.97145 
L 310.946147 172.73324 
L 312.369357 171.697568 
L 313.792567 165.680813 
L 315.215777 166.716484 
L 316.638987 161.439493 
L 318.062197 163.757424 
L 319.485407 162.031305 
L 320.908617 162.623117 
M 402.03159 258.348712 
L 403.454801 261.99822 
L 404.878011 267.225893 
L 406.301221 269.099964 
L 407.724431 268.508152 
L 409.147641 271.220624 
L 410.570851 267.127257 
L 411.994061 276.103073 
L 413.417271 288.481808 
L 414.840481 297.1124 
L 416.263691 303.326426 
L 417.686901 304.411415 
L 419.110111 304.608686 
L 420.533321 306.384122 
L 421.956531 316.395608 
L 423.379741 314.324266 
L 424.802951 320.094434 
L 426.226161 329.810014 
L 427.649371 332.769074 
L 429.072582 342.632608 
L 430.495792 354.567484 
L 431.919002 362.113087 
L 433.342212 369.017561 
L 434.765422 376.957706 
L 436.188632 373.752057 
L 437.611842 374.195916 
L 439.035052 375.083634 
L 440.458262 376.415211 
L 441.881472 379.177001 
L 443.304682 379.571542 
L 444.727892 382.727873 
L 446.151102 387.067828 
L 447.574312 390.668017 
L 448.997522 385.588298 
L 450.420732 384.05945 
L 453.267152 379.029048 
L 454.690363 384.848533 
L 456.113573 383.664908 
L 457.536783 381.889472 
L 458.959993 384.158085 
L 460.383203 385.785568 
L 461.806413 383.369002 
L 463.229623 389.089852 
L 464.652833 387.314416 
L 466.076043 382.875826 
L 467.499253 379.127683 
L 468.922463 380.064719 
L 470.345673 382.57992 
L 471.768883 379.374271 
L 473.192093 374.442504 
L 474.615303 373.949328 
L 476.038513 372.223209 
L 477.461723 371.532762 
L 478.884934 367.932572 
L 480.308144 365.269418 
L 481.731354 366.107818 
L 483.154564 365.910548 
L 484.577774 361.077416 
L 486.000984 361.077416 
L 487.424194 359.548568 
L 488.847404 356.934732 
L 490.270614 356.737461 
L 491.693824 351.361835 
L 493.117034 288.037949 
L 494.540244 298.493295 
L 495.963454 294.99174 
L 497.386664 294.79447 
L 498.809874 285.47343 
L 500.233084 283.204817 
L 501.656294 286.558419 
L 503.079504 288.333855 
L 504.502715 280.788252 
L 505.925925 279.55531 
L 507.349135 280.936205 
L 508.772345 279.851216 
L 510.195555 274.278319 
L 511.618765 272.897425 
L 513.041975 268.705423 
L 514.465185 268.952011 
L 515.888395 267.817705 
L 517.311605 249.175626 
L 518.734815 243.208188 
L 521.581235 238.424374 
L 523.004445 237.733927 
L 525.850865 235.958491 
L 527.274075 233.295337 
L 528.697285 215.639611 
L 530.120496 187.380587 
L 531.543706 185.753104 
L 532.966916 176.678653 
L 534.390126 169.97145 
L 535.813336 166.617849 
L 537.236546 167.702837 
L 538.659756 161.439493 
L 540.082966 130.073456 
L 541.506176 126.769172 
L 542.929386 125.832137 
L 544.352596 119.667428 
L 545.775806 117.744039 
L 547.199016 116.313827 
L 548.622226 119.864699 
L 550.045436 112.910907 
L 551.468646 112.516366 
L 552.891856 126.966443 
L 554.315066 123.514206 
L 557.161487 115.327473 
L 558.584697 115.376791 
L 560.007907 115.722015 
L 561.431117 113.305449 
L 562.854327 114.587708 
L 564.277537 117.990627 
L 565.700747 112.121825 
L 567.123957 110.543659 
L 568.547167 111.38206 
L 569.970377 115.82065 
L 571.393587 114.538391 
L 572.816797 118.089263 
L 574.240007 119.716746 
L 575.663217 124.007383 
M 605.550629 159.516104 
L 606.973839 159.417469 
L 608.397049 162.277894 
L 609.820259 159.664057 
L 611.243469 165.631495 
M 635.43804 238.72028 
L 636.86125 246.167248 
L 638.28446 247.202919 
L 639.70767 250.556521 
L 641.13088 251.394921 
L 642.55409 256.523959 
L 643.9773 258.595301 
L 645.40051 281.330746 
L 646.82372 283.402088 
L 648.24693 288.087267 
L 649.67014 288.827032 
L 651.09335 290.997009 
L 652.51656 302.38939 
L 653.93977 301.896214 
L 655.362981 304.263462 
L 656.786191 311.513159 
L 659.632611 317.332644 
L 661.055821 317.431279 
L 662.479031 316.198338 
L 663.902241 327.492084 
L 665.325451 336.221311 
L 666.748661 337.848794 
L 668.171871 342.040796 
L 669.595081 345.493033 
L 671.018291 349.487764 
L 672.441501 364.825559 
L 673.864711 365.565324 
L 675.287921 366.69963 
L 676.711131 364.529653 
L 678.134341 370.645044 
L 679.557551 370.891632 
L 680.980762 374.491822 
L 682.403972 374.097281 
L 683.827182 373.850692 
L 686.673602 373.653422 
L 688.096812 383.023779 
L 689.520022 379.867448 
L 690.943232 384.453991 
L 692.366442 391.802324 
L 693.789652 388.399405 
L 695.212862 386.919875 
L 696.636072 388.744628 
L 698.059282 389.188487 
L 699.482492 391.111876 
L 700.905702 391.703688 
L 702.328912 388.892581 
L 705.175332 391.555735 
L 706.598543 393.922984 
L 708.021753 394.317525 
L 709.444963 390.026888 
L 710.868173 389.681664 
L 712.291383 386.969192 
L 713.714593 387.85691 
L 715.137803 383.862179 
L 716.561013 381.051072 
L 717.984223 362.162405 
L 719.407433 364.776241 
L 720.830643 363.5433 
L 722.253853 363.937841 
L 723.677063 366.305089 
L 725.100273 364.726924 
L 726.523483 360.386969 
L 727.946693 359.104709 
L 729.369903 357.625179 
L 730.793113 352.348189 
L 732.216324 352.348189 
L 733.639534 340.166725 
L 735.062744 314.866761 
L 736.485954 313.091325 
M 742.178794 299.775554 
L 743.602004 302.981203 
L 745.025214 299.726236 
L 746.448424 298.59193 
L 747.871634 296.421953 
L 749.294844 294.843787 
L 750.718054 295.238329 
L 752.141264 268.853376 
L 753.564474 272.404248 
L 754.987684 268.508152 
L 756.410895 267.324528 
L 757.834105 265.894316 
L 759.257315 264.760009 
L 760.680525 263.970927 
L 762.103735 263.872291 
L 763.526945 264.414786 
L 764.950155 263.724338 
L 766.373365 266.190222 
L 767.796575 258.940524 
L 769.219785 261.99822 
L 770.642995 256.129417 
L 772.066205 254.551252 
L 773.489415 203.507465 
L 774.912625 207.896737 
L 776.335835 214.653258 
L 777.759045 208.439232 
L 779.182255 207.650149 
L 780.605465 205.332219 
L 782.028676 205.036313 
L 783.451886 209.918762 
L 784.875096 203.310194 
L 786.298306 202.817017 
L 787.721516 168.886461 
L 789.144726 158.233845 
L 791.991146 146.792146 
L 793.414356 145.904428 
L 794.837566 144.868757 
L 796.260776 144.819439 
L 797.683986 146.200334 
L 799.107196 142.008332 
L 800.530406 149.997794 
L 801.953616 129.678915 
L 803.376826 132.144798 
L 804.800036 133.525693 
L 806.223246 131.89821 
L 807.646457 133.624328 
L 809.069667 135.153176 
L 810.492877 136.435435 
L 811.916087 138.605413 
L 813.339297 141.761744 
L 814.762507 140.972661 
L 816.185717 142.205603 
L 817.608927 142.994685 
L 817.608927 142.994685 
" clip-path="url(#p95e56dd95f)" style="fill: none; stroke: #0000ff; stroke-width: 1.5; stroke-linecap: square"/>
   </g>
   <g id="patch_3">
    <path d="M 126 448.56 
L 126 60.48 
" style="fill: none; stroke: #000000; stroke-width: 0.8; stroke-linejoin: miter; stroke-linecap: square"/>
   </g>
   <g id="patch_4">
    <path d="M 907.2 448.56 
L 907.2 60.48 
" style="fill: none; stroke: #000000; stroke-width: 0.8; stroke-linejoin: miter; stroke-linecap: square"/>
   </g>
   <g id="patch_5">
    <path d="M 126 448.56 
L 907.2 448.56 
" style="fill: none; stroke: #000000; stroke-width: 0.8; stroke-linejoin: miter; stroke-linecap: square"/>
   </g>
   <g id="patch_6">
    <path d="M 126 60.48 
L 907.2 60.48 
" style="fill: none; stroke: #000000; stroke-width: 0.8; stroke-linejoin: miter; stroke-linecap: square"/>
   </g>
   <g id="text_18">
    <!-- H032_v2, SPT12, Y-axis, Right eye -->
    <g transform="translate(414.319688 54.48) scale(0.12 -0.12)">
     <defs>
      <path id="DejaVuSans-48" d="M 628 4666 
L 1259 4666 
L 1259 2753 
L 3553 2753 
L 3553 4666 
L 4184 4666 
L 4184 0 
L 3553 0 
L 3553 2222 
L 1259 2222 
L 1259 0 
L 628 0 
L 628 4666 
z
" transform="scale(0.015625)"/>
      <path id="DejaVuSans-5f" d="M 3263 -1063 
L 3263 -1509 
L -63 -1509 
L -63 -1063 
L 3263 -1063 
z
" transform="scale(0.015625)"/>
      <path id="DejaVuSans-76" d="M 191 3500 
L 800 3500 
L 1894 563 
L 2988 3500 
L 3597 3500 
L 2284 0 
L 1503 0 
L 191 3500 
z
" transform="scale(0.015625)"/>
      <path id="DejaVuSans-2c" d="M 750 794 
L 1409 794 
L 1409 256 
L 897 -744 
L 494 -744 
L 750 256 
L 750 794 
z
" transform="scale(0.015625)"/>
      <path id="DejaVuSans-53" d="M 3425 4513 
L 3425 3897 
Q 3066 4069 2747 4153 
Q 2428 4238 2131 4238 
Q 1616 4238 1336 4038 
Q 1056 3838 1056 3469 
Q 1056 3159 1242 3001 
Q 1428 2844 1947 2747 
L 2328 2669 
Q 3034 2534 3370 2195 
Q 3706 1856 3706 1288 
Q 3706 609 3251 259 
Q 2797 -91 1919 -91 
Q 1588 -91 1214 -16 
Q 841 59 441 206 
L 441 856 
Q 825 641 1194 531 
Q 1563 422 1919 422 
Q 2459 422 2753 634 
Q 3047 847 3047 1241 
Q 3047 1584 2836 1778 
Q 2625 1972 2144 2069 
L 1759 2144 
Q 1053 2284 737 2584 
Q 422 2884 422 3419 
Q 422 4038 858 4394 
Q 1294 4750 2059 4750 
Q 2388 4750 2728 4690 
Q 3069 4631 3425 4513 
z
" transform="scale(0.015625)"/>
      <path id="DejaVuSans-50" d="M 1259 4147 
L 1259 2394 
L 2053 2394 
Q 2494 2394 2734 2622 
Q 2975 2850 2975 3272 
Q 2975 3691 2734 3919 
Q 2494 4147 2053 4147 
L 1259 4147 
z
M 628 4666 
L 2053 4666 
Q 2838 4666 3239 4311 
Q 3641 3956 3641 3272 
Q 3641 2581 3239 2228 
Q 2838 1875 2053 1875 
L 1259 1875 
L 1259 0 
L 628 0 
L 628 4666 
z
" transform="scale(0.015625)"/>
      <path id="DejaVuSans-59" d="M -13 4666 
L 666 4666 
L 1959 2747 
L 3244 4666 
L 3922 4666 
L 2272 2222 
L 2272 0 
L 1638 0 
L 1638 2222 
L -13 4666 
z
" transform="scale(0.015625)"/>
      <path id="DejaVuSans-2d" d="M 313 2009 
L 1997 2009 
L 1997 1497 
L 313 1497 
L 313 2009 
z
" transform="scale(0.015625)"/>
      <path id="DejaVuSans-61" d="M 2194 1759 
Q 1497 1759 1228 1600 
Q 959 1441 959 1056 
Q 959 750 1161 570 
Q 1363 391 1709 391 
Q 2188 391 2477 730 
Q 2766 1069 2766 1631 
L 2766 1759 
L 2194 1759 
z
M 3341 1997 
L 3341 0 
L 2766 0 
L 2766 531 
Q 2569 213 2275 61 
Q 1981 -91 1556 -91 
Q 1019 -91 701 211 
Q 384 513 384 1019 
Q 384 1609 779 1909 
Q 1175 2209 1959 2209 
L 2766 2209 
L 2766 2266 
Q 2766 2663 2505 2880 
Q 2244 3097 1772 3097 
Q 1472 3097 1187 3025 
Q 903 2953 641 2809 
L 641 3341 
Q 956 3463 1253 3523 
Q 1550 3584 1831 3584 
Q 2591 3584 2966 3190 
Q 3341 2797 3341 1997 
z
" transform="scale(0.015625)"/>
      <path id="DejaVuSans-78" d="M 3513 3500 
L 2247 1797 
L 3578 0 
L 2900 0 
L 1881 1375 
L 863 0 
L 184 0 
L 1544 1831 
L 300 3500 
L 978 3500 
L 1906 2253 
L 2834 3500 
L 3513 3500 
z
" transform="scale(0.015625)"/>
      <path id="DejaVuSans-52" d="M 2841 2188 
Q 3044 2119 3236 1894 
Q 3428 1669 3622 1275 
L 4263 0 
L 3584 0 
L 2988 1197 
Q 2756 1666 2539 1819 
Q 2322 1972 1947 1972 
L 1259 1972 
L 1259 0 
L 628 0 
L 628 4666 
L 2053 4666 
Q 2853 4666 3247 4331 
Q 3641 3997 3641 3322 
Q 3641 2881 3436 2590 
Q 3231 2300 2841 2188 
z
M 1259 4147 
L 1259 2491 
L 2053 2491 
Q 2509 2491 2742 2702 
Q 2975 2913 2975 3322 
Q 2975 3731 2742 3939 
Q 2509 4147 2053 4147 
L 1259 4147 
z
" transform="scale(0.015625)"/>
      <path id="DejaVuSans-67" d="M 2906 1791 
Q 2906 2416 2648 2759 
Q 2391 3103 1925 3103 
Q 1463 3103 1205 2759 
Q 947 2416 947 1791 
Q 947 1169 1205 825 
Q 1463 481 1925 481 
Q 2391 481 2648 825 
Q 2906 1169 2906 1791 
z
M 3481 434 
Q 3481 -459 3084 -895 
Q 2688 -1331 1869 -1331 
Q 1566 -1331 1297 -1286 
Q 1028 -1241 775 -1147 
L 775 -588 
Q 1028 -725 1275 -790 
Q 1522 -856 1778 -856 
Q 2344 -856 2625 -561 
Q 2906 -266 2906 331 
L 2906 616 
Q 2728 306 2450 153 
Q 2172 0 1784 0 
Q 1141 0 747 490 
Q 353 981 353 1791 
Q 353 2603 747 3093 
Q 1141 3584 1784 3584 
Q 2172 3584 2450 3431 
Q 2728 3278 2906 2969 
L 2906 3500 
L 3481 3500 
L 3481 434 
z
" transform="scale(0.015625)"/>
      <path id="DejaVuSans-68" d="M 3513 2113 
L 3513 0 
L 2938 0 
L 2938 2094 
Q 2938 2591 2744 2837 
Q 2550 3084 2163 3084 
Q 1697 3084 1428 2787 
Q 1159 2491 1159 1978 
L 1159 0 
L 581 0 
L 581 4863 
L 1159 4863 
L 1159 2956 
Q 1366 3272 1645 3428 
Q 1925 3584 2291 3584 
Q 2894 3584 3203 3211 
Q 3513 2838 3513 2113 
z
" transform="scale(0.015625)"/>
      <path id="DejaVuSans-79" d="M 2059 -325 
Q 1816 -950 1584 -1140 
Q 1353 -1331 966 -1331 
L 506 -1331 
L 506 -850 
L 844 -850 
Q 1081 -850 1212 -737 
Q 1344 -625 1503 -206 
L 1606 56 
L 191 3500 
L 800 3500 
L 1894 763 
L 2988 3500 
L 3597 3500 
L 2059 -325 
z
" transform="scale(0.015625)"/>
     </defs>
     <use xlink:href="#DejaVuSans-48"/>
     <use xlink:href="#DejaVuSans-30" x="75.195312"/>
     <use xlink:href="#DejaVuSans-33" x="138.818359"/>
     <use xlink:href="#DejaVuSans-32" x="202.441406"/>
     <use xlink:href="#DejaVuSans-5f" x="266.064453"/>
     <use xlink:href="#DejaVuSans-76" x="316.064453"/>
     <use xlink:href="#DejaVuSans-32" x="375.244141"/>
     <use xlink:href="#DejaVuSans-2c" x="438.867188"/>
     <use xlink:href="#DejaVuSans-20" x="470.654297"/>
     <use xlink:href="#DejaVuSans-53" x="502.441406"/>
     <use xlink:href="#DejaVuSans-50" x="565.917969"/>
     <use xlink:href="#DejaVuSans-54" x="626.220703"/>
     <use xlink:href="#DejaVuSans-31" x="687.304688"/>
     <use xlink:href="#DejaVuSans-32" x="750.927734"/>
     <use xlink:href="#DejaVuSans-2c" x="814.550781"/>
     <use xlink:href="#DejaVuSans-20" x="846.337891"/>
     <use xlink:href="#DejaVuSans-59" x="878.125"/>
     <use xlink:href="#DejaVuSans-2d" x="927.333984"/>
     <use xlink:href="#DejaVuSans-61" x="963.417969"/>
     <use xlink:href="#DejaVuSans-78" x="1024.697266"/>
     <use xlink:href="#DejaVuSans-69" x="1083.876953"/>
     <use xlink:href="#DejaVuSans-73" x="1111.660156"/>
     <use xlink:href="#DejaVuSans-2c" x="1163.759766"/>
     <use xlink:href="#DejaVuSans-20" x="1195.546875"/>
     <use xlink:href="#DejaVuSans-52" x="1227.333984"/>
     <use xlink:href="#DejaVuSans-69" x="1296.816406"/>
     <use xlink:href="#DejaVuSans-67" x="1324.599609"/>
     <use xlink:href="#DejaVuSans-68" x="1388.076172"/>
     <use xlink:href="#DejaVuSans-74" x="1451.455078"/>
     <use xlink:href="#DejaVuSans-20" x="1490.664062"/>
     <use xlink:href="#DejaVuSans-65" x="1522.451172"/>
     <use xlink:href="#DejaVuSans-79" x="1583.974609"/>
     <use xlink:href="#DejaVuSans-65" x="1643.154297"/>
    </g>
   </g>
   <g id="legend_1">
    <g id="patch_7">
     <path d="M 837.25625 112.514375 
L 900.2 112.514375 
Q 902.2 112.514375 902.2 110.514375 
L 902.2 67.48 
Q 902.2 65.48 900.2 65.48 
L 837.25625 65.48 
Q 835.25625 65.48 835.25625 67.48 
L 835.25625 110.514375 
Q 835.25625 112.514375 837.25625 112.514375 
z
" style="fill: #ffffff; opacity: 0.8; stroke: #cccccc; stroke-linejoin: miter"/>
    </g>
    <g id="line2d_19">
     <path d="M 839.25625 73.578438 
L 849.25625 73.578438 
L 859.25625 73.578438 
" style="fill: none; stroke-dasharray: 1.5,2.475; stroke-dashoffset: 0; stroke: #000000; stroke-width: 1.5"/>
    </g>
    <g id="text_19">
     <!-- Target -->
     <g transform="translate(867.25625 77.078438) scale(0.1 -0.1)">
      <defs>
       <path id="DejaVuSans-72" d="M 2631 2963 
Q 2534 3019 2420 3045 
Q 2306 3072 2169 3072 
Q 1681 3072 1420 2755 
Q 1159 2438 1159 1844 
L 1159 0 
L 581 0 
L 581 3500 
L 1159 3500 
L 1159 2956 
Q 1341 3275 1631 3429 
Q 1922 3584 2338 3584 
Q 2397 3584 2469 3576 
Q 2541 3569 2628 3553 
L 2631 2963 
z
" transform="scale(0.015625)"/>
      </defs>
      <use xlink:href="#DejaVuSans-54"/>
      <use xlink:href="#DejaVuSans-61" x="44.583984"/>
      <use xlink:href="#DejaVuSans-72" x="105.863281"/>
      <use xlink:href="#DejaVuSans-67" x="145.226562"/>
      <use xlink:href="#DejaVuSans-65" x="208.703125"/>
      <use xlink:href="#DejaVuSans-74" x="270.226562"/>
     </g>
    </g>
    <g id="line2d_20">
     <path d="M 839.25625 88.256563 
L 849.25625 88.256563 
L 859.25625 88.256563 
" style="fill: none; stroke: #ff0000; stroke-width: 1.5; stroke-linecap: square"/>
    </g>
    <g id="text_20">
     <!-- SAITS -->
     <g transform="translate(867.25625 91.756563) scale(0.1 -0.1)">
      <defs>
       <path id="DejaVuSans-49" d="M 628 4666 
L 1259 4666 
L 1259 0 
L 628 0 
L 628 4666 
z
" transform="scale(0.015625)"/>
      </defs>
      <use xlink:href="#DejaVuSans-53"/>
      <use xlink:href="#DejaVuSans-41" x="65.351562"/>
      <use xlink:href="#DejaVuSans-49" x="133.759766"/>
      <use xlink:href="#DejaVuSans-54" x="163.251953"/>
      <use xlink:href="#DejaVuSans-53" x="224.335938"/>
     </g>
    </g>
    <g id="line2d_21">
     <path d="M 839.25625 102.934687 
L 849.25625 102.934687 
L 859.25625 102.934687 
" style="fill: none; stroke: #0000ff; stroke-width: 1.5; stroke-linecap: square"/>
    </g>
    <g id="text_21">
     <!-- Gaze -->
     <g transform="translate(867.25625 106.434687) scale(0.1 -0.1)">
      <defs>
       <path id="DejaVuSans-47" d="M 3809 666 
L 3809 1919 
L 2778 1919 
L 2778 2438 
L 4434 2438 
L 4434 434 
Q 4069 175 3628 42 
Q 3188 -91 2688 -91 
Q 1594 -91 976 548 
Q 359 1188 359 2328 
Q 359 3472 976 4111 
Q 1594 4750 2688 4750 
Q 3144 4750 3555 4637 
Q 3966 4525 4313 4306 
L 4313 3634 
Q 3963 3931 3569 4081 
Q 3175 4231 2741 4231 
Q 1884 4231 1454 3753 
Q 1025 3275 1025 2328 
Q 1025 1384 1454 906 
Q 1884 428 2741 428 
Q 3075 428 3337 486 
Q 3600 544 3809 666 
z
" transform="scale(0.015625)"/>
       <path id="DejaVuSans-7a" d="M 353 3500 
L 3084 3500 
L 3084 2975 
L 922 459 
L 3084 459 
L 3084 0 
L 275 0 
L 275 525 
L 2438 3041 
L 353 3041 
L 353 3500 
z
" transform="scale(0.015625)"/>
      </defs>
      <use xlink:href="#DejaVuSans-47"/>
      <use xlink:href="#DejaVuSans-61" x="77.490234"/>
      <use xlink:href="#DejaVuSans-7a" x="138.769531"/>
      <use xlink:href="#DejaVuSans-65" x="191.259766"/>
     </g>
    </g>
   </g>
  </g>
 </g>
 <defs>
  <clipPath id="p95e56dd95f">
   <rect x="126" y="60.48" width="781.2" height="388.08"/>
  </clipPath>
 </defs>
</svg>
